<svg xmlns="http://www.w3.org/2000/svg" viewBox="0 0 80 80" fill="none">
  <rect width="80" height="80" rx="12" fill="#FAF7F2"/>
  <rect x="1" y="1" width="78" height="78" rx="11" stroke="#D5CBBA" stroke-width="1"/>
  <!-- Parchemin -->
  <rect x="18" y="14" width="36" height="48" rx="2" fill="#F3EFE6" stroke="#A67C52" stroke-width="1.5"/>
  <rect x="18" y="14" width="36" height="8" rx="2" fill="#A67C52" opacity=".12"/>
  <!-- Lignes de texte manuscrit -->
  <path d="M24 30c4-1 8 1 12 0s6-1 10 0" stroke="#A67C52" stroke-width="1" opacity=".5" stroke-linecap="round"/>
  <path d="M24 36c3 1 7-1 11 0s7 1 11 0" stroke="#A67C52" stroke-width="1" opacity=".4" stroke-linecap="round"/>
  <path d="M24 42c5-1 6 1 10 0s5-1 8 0" stroke="#A67C52" stroke-width="1" opacity=".35" stroke-linecap="round"/>
  <path d="M24 48c3 0 5 1 8 0" stroke="#A67C52" stroke-width="1" opacity=".3" stroke-linecap="round"/>
  <!-- Plume -->
  <path d="M52 18c3-3 10-12 14-14-1 5-4 10-7 13l-3 4z" fill="#D4AF37"/>
  <path d="M52 18l4-3" stroke="#A67C52" stroke-width="1" stroke-linecap="round"/>
  <line x1="53" y1="21" x2="50" y2="56" stroke="#A67C52" stroke-width="1.2" stroke-linecap="round"/>
  <!-- Pointe plume -->
  <path d="M50 56l-1 4 2-1z" fill="#1C1C1C"/>
  <!-- AI badge -->
  <circle cx="62" cy="60" r="10" fill="#A67C52"/>
  <text x="62" y="64" text-anchor="middle" fill="#fff" font-family="Georgia,serif" font-size="9" font-weight="700">HTR</text>
</svg>
