<svg xmlns="http://www.w3.org/2000/svg" viewBox="0 0 80 80" fill="none">
  <rect width="80" height="80" rx="12" fill="#FAF7F2"/>
  <rect x="1" y="1" width="78" height="78" rx="11" stroke="#D5CBBA" stroke-width="1"/>
  <!-- Maison / foyer -->
  <path d="M40 16L14 38h8v22h36V38h8z" fill="#F3EFE6" stroke="#A67C52" stroke-width="1.5" stroke-linejoin="round"/>
  <rect x="22" y="38" width="36" height="22" fill="#F3EFE6" stroke="#A67C52" stroke-width="1.2"/>
  <!-- Porte -->
  <rect x="34" y="44" width="12" height="16" rx="1" fill="#A67C52" opacity=".15" stroke="#A67C52" stroke-width="1"/>
  <circle cx="43" cy="53" r="1" fill="#A67C52"/>
  <!-- Fenêtres -->
  <rect x="25" y="42" width="7" height="7" rx="1" fill="#D4AF37" opacity=".2" stroke="#A67C52" stroke-width=".8"/>
  <rect x="48" y="42" width="7" height="7" rx="1" fill="#D4AF37" opacity=".2" stroke="#A67C52" stroke-width=".8"/>
  <!-- Coeur famille -->
  <path d="M36 28c-1-3 3-5 4-2 1-3 5-1 4 2-1 2-4 5-4 5s-3-3-4-5z" fill="#D4AF37" opacity=".6"/>
  <!-- Cheminée -->
  <rect x="50" y="20" width="5" height="14" fill="#F3EFE6" stroke="#A67C52" stroke-width="1"/>
</svg>
