<svg xmlns="http://www.w3.org/2000/svg" viewBox="0 0 80 80" fill="none">
  <rect width="80" height="80" rx="12" fill="#FAF7F2"/>
  <rect x="1" y="1" width="78" height="78" rx="11" stroke="#D5CBBA" stroke-width="1"/>
  <!-- Document / registre -->
  <rect x="12" y="16" width="34" height="44" rx="2" fill="#F3EFE6" stroke="#A67C52" stroke-width="1.2"/>
  <line x1="18" y1="26" x2="40" y2="26" stroke="#A67C52" stroke-width=".8" opacity=".3"/>
  <line x1="18" y1="32" x2="38" y2="32" stroke="#A67C52" stroke-width=".8" opacity=".3"/>
  <line x1="18" y1="38" x2="40" y2="38" stroke="#A67C52" stroke-width=".8" opacity=".3"/>
  <line x1="18" y1="44" x2="34" y2="44" stroke="#A67C52" stroke-width=".8" opacity=".3"/>
  <line x1="18" y1="50" x2="38" y2="50" stroke="#A67C52" stroke-width=".8" opacity=".3"/>
  <!-- Loupe -->
  <circle cx="54" cy="38" r="14" fill="#F3EFE6" stroke="#A67C52" stroke-width="1.8"/>
  <circle cx="54" cy="38" r="10" fill="#D4AF37" opacity=".08" stroke="#D4AF37" stroke-width=".8"/>
  <line x1="64" y1="48" x2="72" y2="58" stroke="#A67C52" stroke-width="3" stroke-linecap="round"/>
  <!-- Texte trouvé dans la loupe -->
  <line x1="48" y1="35" x2="60" y2="35" stroke="#A67C52" stroke-width="1" opacity=".5"/>
  <line x1="48" y1="39" x2="58" y2="39" stroke="#A67C52" stroke-width="1" opacity=".5"/>
  <line x1="48" y1="43" x2="56" y2="43" stroke="#A67C52" stroke-width="1" opacity=".4"/>
  <!-- Badge gratuit -->
  <rect x="10" y="54" width="28" height="12" rx="6" fill="#A67C52"/>
  <text x="24" y="63" text-anchor="middle" fill="#fff" font-family="Georgia,serif" font-size="7.5" font-weight="700">GRATUIT</text>
</svg>
