<svg xmlns="http://www.w3.org/2000/svg" viewBox="0 0 80 80" fill="none">
  <rect width="80" height="80" rx="12" fill="#FAF7F2"/>
  <rect x="1" y="1" width="78" height="78" rx="11" stroke="#D5CBBA" stroke-width="1"/>
  <!-- Réseau / arbre connecté -->
  <!-- Noeud central -->
  <circle cx="40" cy="40" r="6" fill="#A67C52" opacity=".2" stroke="#A67C52" stroke-width="1.5"/>
  <!-- Noeuds externes -->
  <circle cx="20" cy="22" r="4" fill="#D4AF37" opacity=".25" stroke="#D4AF37" stroke-width="1"/>
  <circle cx="60" cy="22" r="4" fill="#D4AF37" opacity=".25" stroke="#D4AF37" stroke-width="1"/>
  <circle cx="16" cy="50" r="4" fill="#D4AF37" opacity=".25" stroke="#D4AF37" stroke-width="1"/>
  <circle cx="64" cy="50" r="4" fill="#D4AF37" opacity=".25" stroke="#D4AF37" stroke-width="1"/>
  <circle cx="30" cy="62" r="4" fill="#D4AF37" opacity=".25" stroke="#D4AF37" stroke-width="1"/>
  <circle cx="52" cy="62" r="4" fill="#D4AF37" opacity=".25" stroke="#D4AF37" stroke-width="1"/>
  <!-- Connexions -->
  <line x1="40" y1="34" x2="22" y2="24" stroke="#A67C52" stroke-width="1" opacity=".4"/>
  <line x1="40" y1="34" x2="58" y2="24" stroke="#A67C52" stroke-width="1" opacity=".4"/>
  <line x1="36" y1="44" x2="18" y2="48" stroke="#A67C52" stroke-width="1" opacity=".4"/>
  <line x1="44" y1="44" x2="62" y2="48" stroke="#A67C52" stroke-width="1" opacity=".4"/>
  <line x1="38" y1="46" x2="31" y2="58" stroke="#A67C52" stroke-width="1" opacity=".4"/>
  <line x1="42" y1="46" x2="50" y2="58" stroke="#A67C52" stroke-width="1" opacity=".4"/>
  <!-- Connexions secondaires -->
  <line x1="22" y1="26" x2="18" y2="46" stroke="#A67C52" stroke-width=".7" opacity=".2"/>
  <line x1="58" y1="26" x2="62" y2="46" stroke="#A67C52" stroke-width=".7" opacity=".2"/>
  <line x1="18" y1="53" x2="28" y2="60" stroke="#A67C52" stroke-width=".7" opacity=".2"/>
  <line x1="62" y1="53" x2="54" y2="60" stroke="#A67C52" stroke-width=".7" opacity=".2"/>
  <!-- Drapeau FR -->
  <rect x="36" y="12" width="4" height="3" fill="#002395"/>
  <rect x="40" y="12" width="4" height="3" fill="#fff" stroke="#D5CBBA" stroke-width=".3"/>
  <rect x="44" y="12" width="4" height="3" fill="#ED2939"/>
</svg>
