<svg xmlns="http://www.w3.org/2000/svg" viewBox="0 0 80 80" fill="none">
  <rect width="80" height="80" rx="12" fill="#FAF7F2"/>
  <rect x="1" y="1" width="78" height="78" rx="11" stroke="#D5CBBA" stroke-width="1"/>
  <!-- Arbre généalogique -->
  <line x1="40" y1="62" x2="40" y2="42" stroke="#A67C52" stroke-width="2" stroke-linecap="round"/>
  <line x1="40" y1="42" x2="26" y2="30" stroke="#A67C52" stroke-width="1.5" stroke-linecap="round"/>
  <line x1="40" y1="42" x2="54" y2="30" stroke="#A67C52" stroke-width="1.5" stroke-linecap="round"/>
  <line x1="26" y1="30" x2="18" y2="22" stroke="#A67C52" stroke-width="1.2" stroke-linecap="round"/>
  <line x1="26" y1="30" x2="32" y2="22" stroke="#A67C52" stroke-width="1.2" stroke-linecap="round"/>
  <line x1="54" y1="30" x2="48" y2="22" stroke="#A67C52" stroke-width="1.2" stroke-linecap="round"/>
  <line x1="54" y1="30" x2="62" y2="22" stroke="#A67C52" stroke-width="1.2" stroke-linecap="round"/>
  <!-- Feuilles / noeuds -->
  <circle cx="40" cy="62" r="4" fill="#A67C52" opacity=".2" stroke="#A67C52" stroke-width="1"/>
  <circle cx="26" cy="30" r="3.5" fill="#A67C52" opacity=".15" stroke="#A67C52" stroke-width="1"/>
  <circle cx="54" cy="30" r="3.5" fill="#A67C52" opacity=".15" stroke="#A67C52" stroke-width="1"/>
  <circle cx="18" cy="20" r="3" fill="#D4AF37" opacity=".3" stroke="#D4AF37" stroke-width="1"/>
  <circle cx="32" cy="20" r="3" fill="#D4AF37" opacity=".3" stroke="#D4AF37" stroke-width="1"/>
  <circle cx="48" cy="20" r="3" fill="#D4AF37" opacity=".3" stroke="#D4AF37" stroke-width="1"/>
  <circle cx="62" cy="20" r="3" fill="#D4AF37" opacity=".3" stroke="#D4AF37" stroke-width="1"/>
  <!-- Feuillage -->
  <ellipse cx="40" cy="14" rx="28" ry="8" fill="#A67C52" opacity=".06"/>
</svg>
